<?xml version="1.0" encoding="UTF-8" standalone="no"?>
<!-- Created with Inkscape (http://www.inkscape.org/) -->

<svg
   width="39.825478mm"
   height="43.453163mm"
   viewBox="0 0 39.825478 43.453163"
   version="1.1"
   id="svg911"
   inkscape:version="1.3.2 (091e20e, 2023-11-25, custom)"
   sodipodi:docname="audio-icon.svg"
   xmlns:inkscape="http://www.inkscape.org/namespaces/inkscape"
   xmlns:sodipodi="http://sodipodi.sourceforge.net/DTD/sodipodi-0.dtd"
   xmlns="http://www.w3.org/2000/svg"
   xmlns:svg="http://www.w3.org/2000/svg"
   xmlns:rdf="http://www.w3.org/1999/02/22-rdf-syntax-ns#"
   xmlns:cc="http://creativecommons.org/ns#"
   xmlns:dc="http://purl.org/dc/elements/1.1/">
  <defs
     id="defs905" />
  <sodipodi:namedview
     id="base"
     pagecolor="#ffffff"
     bordercolor="#666666"
     borderopacity="1.0"
     inkscape:pageopacity="0.0"
     inkscape:pageshadow="2"
     inkscape:zoom="3.959798"
     inkscape:cx="92.681495"
     inkscape:cy="118.06158"
     inkscape:document-units="mm"
     inkscape:current-layer="layer3"
     showgrid="false"
     fit-margin-top="0"
     fit-margin-left="0"
     fit-margin-right="0"
     fit-margin-bottom="0"
     inkscape:window-width="2560"
     inkscape:window-height="1369"
     inkscape:window-x="-8"
     inkscape:window-y="564"
     inkscape:window-maximized="1"
     inkscape:showpageshadow="0"
     inkscape:pagecheckerboard="0"
     inkscape:deskcolor="#d1d1d1" />
  <metadata
     id="metadata908">
    <rdf:RDF>
      <cc:Work
         rdf:about="">
        <dc:format>image/svg+xml</dc:format>
        <dc:type
           rdf:resource="http://purl.org/dc/dcmitype/StillImage" />
      </cc:Work>
    </rdf:RDF>
  </metadata>
  <g
     inkscape:groupmode="layer"
     id="layer3"
     inkscape:label="Calque 2">
    <path
       id="path2"
       style="color:#000000;fill:#00d1a4;fill-opacity:1;stroke-linecap:round;-inkscape-stroke:none"
       d="M 18.496546,0 A 1.5,1.5 0 0 0 16.996379,1.49965 V 5.563485 A 1.5,1.5 0 0 0 15.662093,4.74183 1.5,1.5 0 0 0 14.161927,6.241997 v 7.765417 a 1.5,1.5 0 0 0 -1.332219,-0.81442 1.5,1.5 0 0 0 -1.49965,1.500166 v 3.780131 A 1.5,1.5 0 0 0 9.997323,17.659904 1.5,1.5 0 0 0 8.665104,18.48621 V 17.56637 A 1.5,1.5 0 0 0 7.164938,16.066203 1.5,1.5 0 0 0 5.832719,16.884758 V 15.199073 A 1.5,1.5 0 0 0 4.332552,13.698906 1.5,1.5 0 0 0 2.832902,15.199073 V 18.34255 A 1.5,1.5 0 0 0 1.500167,17.529163 1.5,1.5 0 0 0 0,19.02933 v 5.394503 a 1.5,1.5 0 0 0 1.500167,1.49965 1.5,1.5 0 0 0 1.332735,-0.826307 v 3.156397 a 1.5,1.5 0 0 0 1.49965,1.500167 1.5,1.5 0 0 0 1.500167,-1.500167 v -1.685685 a 1.5,1.5 0 0 0 1.332219,0.818554 1.5,1.5 0 0 0 1.500166,-1.49965 v -0.920357 a 1.5,1.5 0 0 0 1.332219,0.826306 1.5,1.5 0 0 0 1.332735,-0.826306 v 3.79305 a 1.5,1.5 0 0 0 1.49965,1.500167 1.5,1.5 0 0 0 1.332219,-0.814421 v 7.765418 a 1.5,1.5 0 0 0 1.500166,1.500167 1.5,1.5 0 0 0 1.334286,-0.848527 v 4.090706 a 1.5,1.5 0 0 0 1.500167,1.500167 1.5,1.5 0 0 0 1.500167,-1.500167 v -4.646228 a 1.5,1.5 0 0 0 1.332218,0.845427 1.5,1.5 0 0 0 1.500167,-1.500167 v -5.093746 a 1.5,1.5 0 0 0 1.332218,0.851627 1.5,1.5 0 0 0 1.500167,-1.500166 v -6.454387 a 1.5,1.5 0 0 0 1.332218,0.82579 1.5,1.5 0 0 0 1.332736,-0.826307 v 2.462899 a 1.5,1.5 0 0 0 1.49965,1.500167 1.5,1.5 0 0 0 1.332735,-0.831474 v 4.739763 a 1.5,1.5 0 0 0 1.49965,1.49965 1.5,1.5 0 0 0 1.500167,-1.49965 v -1.359607 a 1.5,1.5 0 0 0 1.334285,0.855761 1.5,1.5 0 0 0 1.500167,-1.500166 v -3.189987 a 1.5,1.5 0 0 0 1.332219,0.819072 1.5,1.5 0 0 0 1.500166,-1.500167 v -9.449552 a 1.5,1.5 0 0 0 -1.500166,-1.49965 1.5,1.5 0 0 0 -1.332219,0.818554 v -3.189986 a 1.5,1.5 0 0 0 -1.500167,-1.49965 1.5,1.5 0 0 0 -1.334285,0.855245 v -1.35754 a 1.5,1.5 0 0 0 -1.500167,-1.49965 1.5,1.5 0 0 0 -1.49965,1.49965 v 4.720642 a 1.5,1.5 0 0 0 -1.332735,-0.81442 1.5,1.5 0 0 0 -1.49965,1.500166 v 2.449463 a 1.5,1.5 0 0 0 -1.332736,-0.81287 1.5,1.5 0 0 0 -1.332218,0.825789 v -6.454386 a 1.5,1.5 0 0 0 -1.500167,-1.500167 1.5,1.5 0 0 0 -1.332218,0.852145 V 6.800619 A 1.5,1.5 0 0 0 21.328931,5.300452 1.5,1.5 0 0 0 19.996713,6.146395 V 1.49965 A 1.5,1.5 0 0 0 18.496546,0 Z"
       inkscape:transform-center-x="-1.3363477" />
  </g>
</svg>
