<?xml version="1.0" encoding="UTF-8" standalone="no"?>
<svg
   viewBox="0 0 512 512"
   version="1.1"
   id="svg1"
   sodipodi:docname="table.svg"
   inkscape:version="1.3.2 (091e20e, 2023-11-25, custom)"
   xmlns:inkscape="http://www.inkscape.org/namespaces/inkscape"
   xmlns:sodipodi="http://sodipodi.sourceforge.net/DTD/sodipodi-0.dtd"
   xmlns="http://www.w3.org/2000/svg"
   xmlns:svg="http://www.w3.org/2000/svg">
  <defs
     id="defs1" />
  <sodipodi:namedview
     id="namedview1"
     pagecolor="#505050"
     bordercolor="#eeeeee"
     borderopacity="1"
     inkscape:showpageshadow="0"
     inkscape:pageopacity="0"
     inkscape:pagecheckerboard="0"
     inkscape:deskcolor="#d1d1d1"
     inkscape:zoom="1.1455078"
     inkscape:cx="237.44928"
     inkscape:cy="330.42114"
     inkscape:window-width="2560"
     inkscape:window-height="1369"
     inkscape:window-x="-8"
     inkscape:window-y="564"
     inkscape:window-maximized="1"
     inkscape:current-layer="svg1" />
  <!--! Font Awesome Free 6.5.2 by @fontawesome - https://fontawesome.com License - https://fontawesome.com/license/free (Icons: CC BY 4.0, Fonts: SIL OFL 1.1, Code: MIT License) Copyright 2024 Fonticons, Inc. -->
  <path
     d="M64 256V160H224v96H64zm0 64H224v96H64V320zm224 96V320H448v96H288zM448 256H288V160H448v96zM64 32C28.7 32 0 60.7 0 96V416c0 35.3 28.7 64 64 64H448c35.3 0 64-28.7 64-64V96c0-35.3-28.7-64-64-64H64z"
     id="path1" />
  <path
     d="m 186.27726,177.7117 c 3.59201,-3.59207 3.59201,-9.42559 0,-13.01766 -3.59216,-3.59206 -9.42566,-3.59206 -13.01765,0 L 143,194.98235 112.71173,164.72279 c -3.59211,-3.59207 -9.42559,-3.59207 -13.017675,0 -3.592073,3.59207 -3.592073,9.42557 0,13.01765 l 30.288295,30.25957 -30.259557,30.28829 c -3.592075,3.59206 -3.592075,9.42559 0,13.01765 3.591977,3.59207 9.425517,3.59207 13.017657,0 L 143,221.01766 l 30.28833,30.25957 c 3.59202,3.59206 9.42559,3.59206 13.01764,0 3.59203,-3.59208 3.59203,-9.42559 0,-13.01766 l -30.28832,-30.25956 z"
     id="path1-1"
     style="fill:#d40000;stroke-width:0.287366" />
  <path
     d="m 410.2772,177.7117 c 3.59214,-3.59207 3.59214,-9.42559 0,-13.01766 -3.59198,-3.59206 -9.42551,-3.59206 -13.01764,0 l -30.25958,30.28831 -30.28832,-30.25957 c -3.59203,-3.59206 -9.42557,-3.59206 -13.01765,0 -3.59202,3.59207 -3.59202,9.42558 0,13.01765 L 353.98234,208 323.72273,238.2883 c -3.59201,3.59206 -3.59201,9.42559 0,13.01765 3.59218,3.59206 9.42566,3.59206 13.01765,0 l 30.2596,-30.2883 30.2883,30.25957 c 3.59209,3.59206 9.42558,3.59206 13.01763,0 3.59211,-3.59207 3.59211,-9.42559 0,-13.01765 L 380.01764,208 Z"
     id="path1-1-2"
     style="fill:#d40000;stroke-width:0.287366" />
  <path
     d="m 186.27726,337.7117 c 3.59201,-3.59207 3.59201,-9.42559 0,-13.01766 -3.59216,-3.59206 -9.42566,-3.59206 -13.01765,0 L 143,354.98235 112.71173,324.72279 c -3.59211,-3.59207 -9.42559,-3.59207 -13.017675,0 -3.592073,3.59207 -3.592073,9.42557 0,13.01765 l 30.288295,30.25957 -30.259557,30.28829 c -3.592075,3.59206 -3.592075,9.42559 0,13.01765 3.591977,3.59207 9.425517,3.59207 13.017657,0 L 143,381.01766 l 30.28833,30.25957 c 3.59202,3.59206 9.42559,3.59206 13.01764,0 3.59203,-3.59208 3.59203,-9.42559 0,-13.01766 l -30.28832,-30.25956 z"
     id="path1-1-1"
     style="fill:#d40000;stroke-width:0.287366" />
  <path
     d="m 410.2772,337.7117 c 3.59214,-3.59207 3.59214,-9.42559 0,-13.01766 -3.59198,-3.59206 -9.42551,-3.59206 -13.01764,0 l -30.25958,30.28831 -30.28832,-30.25957 c -3.59203,-3.59206 -9.42557,-3.59206 -13.01765,0 -3.59202,3.59207 -3.59202,9.42558 0,13.01765 L 353.98234,368 323.72273,398.2883 c -3.59201,3.59206 -3.59201,9.42559 0,13.01765 3.59218,3.59206 9.42566,3.59206 13.01765,0 l 30.2596,-30.2883 30.2883,30.25957 c 3.59209,3.59206 9.42558,3.59206 13.01763,0 3.59211,-3.59207 3.59211,-9.42559 0,-13.01765 L 380.01764,368 Z"
     id="path1-1-2-4"
     style="fill:#d40000;stroke-width:0.287366" />
</svg>
