<?xml version="1.0" encoding="UTF-8" standalone="no"?>
<svg
   viewBox="0 0 572.87177 573.88599"
   version="1.1"
   id="svg1"
   sodipodi:docname="upright.svg"
   inkscape:version="1.3.2 (091e20e, 2023-11-25, custom)"
   width="572.87177"
   height="573.88599"
   xmlns:inkscape="http://www.inkscape.org/namespaces/inkscape"
   xmlns:sodipodi="http://sodipodi.sourceforge.net/DTD/sodipodi-0.dtd"
   xmlns="http://www.w3.org/2000/svg"
   xmlns:svg="http://www.w3.org/2000/svg">
  <defs
     id="defs1" />
  <sodipodi:namedview
     id="namedview1"
     pagecolor="#505050"
     bordercolor="#eeeeee"
     borderopacity="1"
     inkscape:showpageshadow="0"
     inkscape:pageopacity="0"
     inkscape:pagecheckerboard="0"
     inkscape:deskcolor="#d1d1d1"
     inkscape:zoom="0.83789063"
     inkscape:cx="109.2028"
     inkscape:cy="383.70163"
     inkscape:window-width="2560"
     inkscape:window-height="1369"
     inkscape:window-x="-8"
     inkscape:window-y="564"
     inkscape:window-maximized="1"
     inkscape:current-layer="svg1" />
  <!--! Font Awesome Free 6.5.2 by @fontawesome - https://fontawesome.com License - https://fontawesome.com/license/free (Icons: CC BY 4.0, Fonts: SIL OFL 1.1, Code: MIT License) Copyright 2024 Fonticons, Inc. -->
  <path
     d="m 182.675,9.375 c -12.5,-12.5 -32.8,-12.5 -45.3,0 l -128,128 c -12.5,12.5 -12.5,32.8 0,45.3 12.5,12.5 32.8,12.5 45.3,0 l 73.4,-73.4 v 370.7 c 0,17.7 14.3,32 32,32 17.7,0 32,-14.3 32,-32 v -370.7 l 73.4,73.4 c 12.5,12.5 32.8,12.5 45.3,0 12.5,-12.5 12.5,-32.8 0,-45.3 l -128,-128 z"
     id="path1"
     style="fill:#ffffff;fill-opacity:1" />
  <path
     d="m 563.49677,436.41098 c 12.5,-12.5 12.5,-32.8 0,-45.3 l -128,-128 c -12.5,-12.5 -32.8,-12.5 -45.3,0 -12.5,12.5 -12.5,32.8 0,45.3 l 73.4,73.4 h -370.7 c -17.7,0 -32.000004,14.3 -32.000004,32 0,17.7 14.300004,32 32.000004,32 h 370.7 l -73.4,73.4 c -12.5,12.5 -12.5,32.8 0,45.3 12.5,12.5 32.8,12.5 45.3,0 l 128,-128 z"
     id="path1-3"
     style="fill:#ffffff;fill-opacity:1" />
</svg>
