<?xml version="1.0" encoding="UTF-8" standalone="no"?>
<!-- Created with Inkscape (http://www.inkscape.org/) -->

<svg
   width="63.668789mm"
   height="53.049728mm"
   viewBox="0 0 63.668789 53.049728"
   version="1.1"
   id="svg911"
   inkscape:version="1.3.2 (091e20e, 2023-11-25, custom)"
   sodipodi:docname="audio-icon.svg"
   xmlns:inkscape="http://www.inkscape.org/namespaces/inkscape"
   xmlns:sodipodi="http://sodipodi.sourceforge.net/DTD/sodipodi-0.dtd"
   xmlns="http://www.w3.org/2000/svg"
   xmlns:svg="http://www.w3.org/2000/svg"
   xmlns:rdf="http://www.w3.org/1999/02/22-rdf-syntax-ns#"
   xmlns:cc="http://creativecommons.org/ns#"
   xmlns:dc="http://purl.org/dc/elements/1.1/">
  <defs
     id="defs905" />
  <sodipodi:namedview
     id="base"
     pagecolor="#ffffff"
     bordercolor="#666666"
     borderopacity="1.0"
     inkscape:pageopacity="0.0"
     inkscape:pageshadow="2"
     inkscape:zoom="1.979899"
     inkscape:cx="-16.414979"
     inkscape:cy="73.488597"
     inkscape:document-units="mm"
     inkscape:current-layer="layer1"
     showgrid="false"
     fit-margin-top="0"
     fit-margin-left="0"
     fit-margin-right="0"
     fit-margin-bottom="0"
     inkscape:window-width="2560"
     inkscape:window-height="1369"
     inkscape:window-x="-8"
     inkscape:window-y="564"
     inkscape:window-maximized="1"
     inkscape:showpageshadow="0"
     inkscape:pagecheckerboard="0"
     inkscape:deskcolor="#d1d1d1" />
  <metadata
     id="metadata908">
    <rdf:RDF>
      <cc:Work
         rdf:about="">
        <dc:format>image/svg+xml</dc:format>
        <dc:type
           rdf:resource="http://purl.org/dc/dcmitype/StillImage" />
      </cc:Work>
    </rdf:RDF>
  </metadata>
  <g
     inkscape:label="Calque 1"
     inkscape:groupmode="layer"
     id="layer1"
     transform="translate(-8.6268175,-8.9720366)">
    <g
       id="path4519"
       style="stroke:none;fill:#000000;fill-opacity:1">
      <path
         style="color:#000000;fill:#000000;stroke-linecap:round;-inkscape-stroke:none;stroke:none;fill-opacity:1"
         d="m 11.577526,32.630526 v 5.395392"
         id="path1" />
      <path
         style="color:#000000;fill:#000000;stroke-linecap:round;-inkscape-stroke:none;stroke:none;fill-opacity:1"
         d="m 11.578125,31.130859 a 1.5,1.5 0 0 0 -1.5,1.5 v 5.394532 a 1.5,1.5 0 0 0 1.5,1.5 1.5,1.5 0 0 0 1.5,-1.5 v -5.394532 a 1.5,1.5 0 0 0 -1.5,-1.5 z"
         id="path2" />
    </g>
    <g
       id="path4519-1"
       style="stroke:none;fill:#000000;fill-opacity:1">
      <path
         style="color:#000000;fill:#000000;stroke-linecap:round;-inkscape-stroke:none;stroke:none;fill-opacity:1"
         d="M 15.997753,28.800454 V 41.85599"
         id="path3" />
      <path
         style="color:#000000;fill:#000000;stroke-linecap:round;-inkscape-stroke:none;stroke:none;fill-opacity:1"
         d="m 15.998047,27.300781 a 1.5,1.5 0 0 0 -1.5,1.5 v 13.054688 a 1.5,1.5 0 0 0 1.5,1.5 1.5,1.5 0 0 0 1.5,-1.5 V 28.800781 a 1.5,1.5 0 0 0 -1.5,-1.5 z"
         id="path4" />
    </g>
    <g
       id="path4519-3"
       style="stroke:none;fill:#000000;fill-opacity:1">
      <path
         style="color:#000000;fill:#000000;stroke-linecap:round;-inkscape-stroke:none;stroke:none;fill-opacity:1"
         d="M 20.41798,31.167522 V 39.48892"
         id="path5" />
      <path
         style="color:#000000;fill:#000000;stroke-linecap:round;-inkscape-stroke:none;stroke:none;fill-opacity:1"
         d="m 20.417969,29.667969 a 1.5,1.5 0 0 0 -1.5,1.5 v 8.320312 a 1.5,1.5 0 0 0 1.5,1.5 1.5,1.5 0 0 0 1.5,-1.5 v -8.320312 a 1.5,1.5 0 0 0 -1.5,-1.5 z"
         id="path6" />
    </g>
    <g
       id="path4519-2"
       style="stroke:none;fill:#000000;fill-opacity:1">
      <path
         style="color:#000000;fill:#000000;stroke-linecap:round;-inkscape-stroke:none;stroke:none;fill-opacity:1"
         d="m 24.838206,32.762444 v 5.131558"
         id="path7" />
      <path
         style="color:#000000;fill:#000000;stroke-linecap:round;-inkscape-stroke:none;stroke:none;fill-opacity:1"
         d="m 24.837891,31.261719 a 1.5,1.5 0 0 0 -1.5,1.5 v 5.132812 a 1.5,1.5 0 0 0 1.5,1.5 1.5,1.5 0 0 0 1.5,-1.5 v -5.132812 a 1.5,1.5 0 0 0 -1.5,-1.5 z"
         id="path8" />
    </g>
    <g
       id="path4519-6"
       style="stroke:none;fill:#000000;fill-opacity:1">
      <path
         style="color:#000000;fill:#000000;stroke-linecap:round;-inkscape-stroke:none;stroke:none;fill-opacity:1"
         d="M 29.258435,28.294996 V 42.361448"
         id="path9" />
      <path
         style="color:#000000;fill:#000000;stroke-linecap:round;-inkscape-stroke:none;stroke:none;fill-opacity:1"
         d="m 29.257812,26.794922 a 1.5,1.5 0 0 0 -1.5,1.5 v 14.066406 a 1.5,1.5 0 0 0 1.5,1.5 1.5,1.5 0 0 0 1.5,-1.5 V 28.294922 a 1.5,1.5 0 0 0 -1.5,-1.5 z"
         id="path10" />
    </g>
    <g
       id="path4519-9"
       style="stroke-width:0;stroke-dasharray:none;stroke:none;fill:#000000;fill-opacity:1">
      <path
         style="color:#000000;fill:#000000;stroke-linecap:round;stroke-width:0;stroke-dasharray:none;stroke:none;fill-opacity:1"
         d="m 33.678659,19.843756 v 30.96893"
         id="path11" />
      <path
         style="color:#000000;fill:#000000;stroke-linecap:round;stroke-width:0;stroke-dasharray:none;stroke:none;fill-opacity:1"
         d="m 33.677734,18.34375 a 1.5,1.5 0 0 0 -1.5,1.5 V 50.8125 a 1.5,1.5 0 0 0 1.5,1.5 1.5,1.5 0 0 0 1.5,-1.5 V 19.84375 a 1.5,1.5 0 0 0 -1.5,-1.5 z"
         id="path12" />
    </g>
    <g
       id="path4519-0"
       style="stroke:none;fill:#000000;fill-opacity:1">
      <path
         style="color:#000000;fill:#000000;stroke-linecap:round;-inkscape-stroke:none;stroke:none;fill-opacity:1"
         d="M 38.098887,15.100789 V 55.555654"
         id="path13" />
      <path
         style="color:#000000;fill:#000000;stroke-linecap:round;-inkscape-stroke:none;stroke:none;fill-opacity:1"
         d="m 38.099609,13.601563 a 1.5,1.5 0 0 0 -1.5,1.5 v 40.453124 a 1.5,1.5 0 0 0 1.5,1.5 1.5,1.5 0 0 0 1.5,-1.5 V 15.101563 a 1.5,1.5 0 0 0 -1.5,-1.5 z"
         id="path14" />
    </g>
    <g
       id="path4519-4"
       style="stroke:none;fill:#000000;fill-opacity:1">
      <path
         style="color:#000000;fill:#000000;stroke-linecap:round;-inkscape-stroke:none;stroke:none;fill-opacity:1"
         d="M 46.939339,26.144746 V 44.511699"
         id="path15" />
      <path
         style="color:#000000;fill:#000000;stroke-linecap:round;-inkscape-stroke:none;stroke:none;fill-opacity:1"
         d="m 46.939453,24.644531 a 1.5,1.5 0 0 0 -1.5,1.5 v 18.367188 a 1.5,1.5 0 0 0 1.5,1.5 1.5,1.5 0 0 0 1.5,-1.5 V 26.144531 a 1.5,1.5 0 0 0 -1.5,-1.5 z"
         id="path16" />
    </g>
    <g
       id="path4519-11"
       style="stroke:none;fill:#000000;fill-opacity:1">
      <path
         style="color:#000000;fill:#000000;stroke-linecap:round;-inkscape-stroke:none;stroke:none;fill-opacity:1"
         d="m 51.359569,33.274217 v 4.108012"
         id="path17" />
      <path
         style="color:#000000;fill:#000000;stroke-linecap:round;-inkscape-stroke:none;stroke:none;fill-opacity:1"
         d="m 51.359375,31.773437 a 1.5,1.5 0 0 0 -1.5,1.5 v 4.109375 a 1.5,1.5 0 0 0 1.5,1.5 1.5,1.5 0 0 0 1.5,-1.5 v -4.109375 a 1.5,1.5 0 0 0 -1.5,-1.5 z"
         id="path18" />
    </g>
    <g
       id="path4519-64"
       style="stroke:none;fill:#000000;fill-opacity:1">
      <path
         style="color:#000000;fill:#000000;stroke-linecap:round;-inkscape-stroke:none;stroke:none;fill-opacity:1"
         d="M 55.779792,30.136266 V 40.520179"
         id="path19" />
      <path
         style="color:#000000;fill:#000000;stroke-linecap:round;-inkscape-stroke:none;stroke:none;fill-opacity:1"
         d="m 55.779297,28.636719 a 1.5,1.5 0 0 0 -1.5,1.5 v 10.382812 a 1.5,1.5 0 0 0 1.5,1.5 1.5,1.5 0 0 0 1.5,-1.5 V 30.136719 a 1.5,1.5 0 0 0 -1.5,-1.5 z"
         id="path20" />
    </g>
    <g
       id="path4519-21"
       style="stroke:none;fill:#000000;fill-opacity:1">
      <path
         style="color:#000000;fill:#000000;stroke-linecap:round;-inkscape-stroke:none;stroke:none;fill-opacity:1"
         d="M 60.20002,24.729633 V 45.926811"
         id="path21" />
      <path
         style="color:#000000;fill:#000000;stroke-linecap:round;-inkscape-stroke:none;stroke:none;fill-opacity:1"
         d="m 60.199219,23.230469 a 1.5,1.5 0 0 0 -1.5,1.5 v 21.197265 a 1.5,1.5 0 0 0 1.5,1.5 1.5,1.5 0 0 0 1.5,-1.5 V 24.730469 a 1.5,1.5 0 0 0 -1.5,-1.5 z"
         id="path22" />
    </g>
    <g
       id="path4519-07"
       style="stroke:none;fill:#000000;fill-opacity:1">
      <path
         style="color:#000000;fill:#000000;stroke-linecap:round;-inkscape-stroke:none;stroke:none;fill-opacity:1"
         d="M 64.62025,26.732238 V 43.924205"
         id="path23" />
      <path
         style="color:#000000;fill:#000000;stroke-linecap:round;-inkscape-stroke:none;stroke:none;fill-opacity:1"
         d="m 64.621094,25.232422 a 1.5,1.5 0 0 0 -1.5,1.5 v 17.191406 a 1.5,1.5 0 0 0 1.5,1.5 1.5,1.5 0 0 0 1.5,-1.5 V 26.732422 a 1.5,1.5 0 0 0 -1.5,-1.5 z"
         id="path24" />
    </g>
    <g
       id="path4519-5"
       style="stroke:none;fill:#000000;fill-opacity:1">
      <path
         style="color:#000000;fill:#000000;stroke-linecap:round;-inkscape-stroke:none;stroke:none;fill-opacity:1"
         d="M 42.519115,20.401952 V 50.25449"
         id="path25" />
      <path
         style="color:#000000;fill:#000000;stroke-linecap:round;-inkscape-stroke:none;stroke:none;fill-opacity:1"
         d="m 42.519531,18.902344 a 1.5,1.5 0 0 0 -1.5,1.5 v 29.851562 a 1.5,1.5 0 0 0 1.5,1.5 1.5,1.5 0 0 0 1.5,-1.5 V 20.402344 a 1.5,1.5 0 0 0 -1.5,-1.5 z"
         id="path26" />
    </g>
    <g
       id="path4519-8"
       style="stroke:none;fill:#000000;fill-opacity:1">
      <path
         style="color:#000000;fill:#000000;stroke-linecap:round;-inkscape-stroke:none;stroke:none;fill-opacity:1"
         d="m 69.040474,30.603619 v 9.449206"
         id="path27" />
      <path
         style="color:#000000;fill:#000000;stroke-linecap:round;-inkscape-stroke:none;stroke:none;fill-opacity:1"
         d="m 69.041016,29.103516 a 1.5,1.5 0 0 0 -1.5,1.5 v 9.449218 a 1.5,1.5 0 0 0 1.5,1.5 1.5,1.5 0 0 0 1.5,-1.5 v -9.449218 a 1.5,1.5 0 0 0 -1.5,-1.5 z"
         id="path28" />
    </g>
  </g>
</svg>
