<?xml version="1.0" encoding="UTF-8" standalone="no"?>
<svg
   viewBox="0 0 512 512"
   version="1.1"
   id="svg1"
   xmlns="http://www.w3.org/2000/svg"
   xmlns:svg="http://www.w3.org/2000/svg">
  <defs
     id="defs1" />
  <!--!Font Awesome Free 6.6.0 by @fontawesome - https://fontawesome.com License - https://fontawesome.com/license/free Copyright 2024 Fonticons, Inc.-->
  <path
     d="M 0,64 C 0,28.7 28.7,0 64,0 h 160 v 128 c 0,17.7 14.3,32 32,32 H 384 V 304 H 176 c -35.3,0 -64,28.7 -64,64 V 512 H 64 C 28.7,512 0,483.3 0,448 Z m 384,64 H 256 V 0 Z"
     id="path1"
     sodipodi:nodetypes="sscssccsscssscccc" />
  <path
     d="M 433.11773,352 C 427.00668,352 422,358.46629 422,366.35892 c 0,7.89265 5.00668,14.35894 11.11773,14.35894 h 34.94095 l -29.74191,35.22425 h -5.4e-4 c -3.36621,3.98903 -4.5139,10.27861 -2.84664,15.79655 1.66166,5.4993 5.77709,9.14995 10.35413,9.14995 h 27.52964 c 9.10763,0 16.41189,9.4337 16.41189,21.19651 0,11.7628 -7.30426,21.19651 -16.41189,21.19651 H 452.5474 c -3.79672,0 -7.29087,-2.7575 -8.98559,-7.1621 l -0.002,-0.004 -0.50408,-1.30274 c -2.73055,-7.05321 -9.44631,-9.94485 -14.9074,-6.41826 -5.4611,3.52659 -7.70003,12.20021 -4.96948,19.25341 l 0.50304,1.2994 c 5.44998,14.11177 16.64352,23.05214 28.8651,23.05214 h 20.80596 c 21.31058,0 38.64737,-22.39102 38.64737,-49.91436 0,-27.08563 -16.79937,-49.15237 -37.64335,-49.84893 L 504.1542,376.9465 h 5.3e-4 c 3.36622,-3.98904 4.51391,-10.27863 2.84664,-15.79656 C 505.33941,355.65064 501.22396,352 496.64692,352 Z"
     id="path3"
     sodipodi:nodetypes="ssscccsssssssccsscssscccsss" />
  <g
     id="path1-9"
     transform="matrix(0.24998805,0,0,0.34186847,155.84978,344.47889)">
    <path
       d="m 64,22 c -40.720167,0 -74,33.279833 -74,74 v 192 160 c 0,23.08604 18.9139591,42 42,42 23.086041,0 42,-18.91396 42,-42 V 330 h 80.09375 l 99.5,142.11523 c 13.2074,18.96113 39.59365,23.57485 58.52148,10.39063 18.96113,-13.2074 23.57485,-39.59365 10.39063,-58.52149 l -0.008,-0.0117 L 245.17364,313.5879 C 295.4792,288.22243 330,236.09347 330,176 330,91.09128 260.90872,22 176,22 Z m 10,84 h 102 c 38.80026,0 70,31.19974 70,70 0,38.80026 -31.19974,70 -70,70 H 74 Z"
       id="path3-3"
       sodipodi:nodetypes="sscssscccscccssscssscc" />
  </g>
  <g
     id="path1-6"
     transform="matrix(0.25170151,0,0,0.34184249,258.82319,344.48697)">
    <path
       d="m 288,22 c -18.56618,0 -35.06918,12.285737 -40.29883,30.197266 v 0.002 L 171.01562,315.04883 71.363281,49.185547 l -0.002,-0.0039 C 63.252722,27.602284 38.88427,16.533694 17.300781,24.632812 c -0.002,7.29e-4 -0.0039,0.0012 -0.0059,0.002 -21.6663548,8.0959 -32.765042,32.491708 -24.6582032,54.076171 l 0.00195,0.0039 c 2.261e-4,6.02e-4 -2.261e-4,0.0014 0,0.002 L 136.64453,462.83008 l 0.008,0.0215 c 6.41507,16.88864 22.95793,27.79784 40.91211,27.14258 18.00559,-0.65714 33.62199,-12.88315 38.72657,-30.16016 l 0.004,-0.0176 71.69922,-245.78711 71.5957,245.73632 c 7.5e-4,0.003 0.001,0.005 0.002,0.008 4.99614,17.3423 20.6939,29.43506 38.67382,30.21679 18.11038,0.78741 34.70601,-10.27227 41.00586,-27.20312 l 143.99024,-383.968751 0.002,-0.0078 C 591.3579,57.257892 580.38153,32.830675 558.6996,24.732604 537.05725,16.649318 512.73742,27.731279 504.63905,49.283385 v 0.002 L 404.98633,315.05664 328.29687,52.189453 l -0.004,-0.01172 C 323.05363,34.363979 306.61313,22 288,22 Z"
       id="path3-6"
       sodipodi:nodetypes="sccccccccccccscccccscccscccccs" />
  </g>
</svg>
